<?xml version="1.0" encoding="UTF-8" standalone="no"?>
<svg width="21px" height="20px" viewBox="0 0 21 20" version="1.1" xmlns="http://www.w3.org/2000/svg" xmlns:xlink="http://www.w3.org/1999/xlink">
    <!-- Generator: Sketch 41 (35326) - http://www.bohemiancoding.com/sketch -->
    <title>Shape</title>
    <desc>Created with Sketch.</desc>
    <defs></defs>
    <g id="Page-1" stroke="none" stroke-width="1" fill="none" fill-rule="evenodd">
        <g id="fone" transform="translate(-7.000000, -6.000000)" fill="#FFFFFF">
            <g id="Group">
                <path d="M22.5435914,25.7750101 C21.976731,25.7693415 21.0527484,25.4518997 20.1230973,25.1231206 C18.8476613,24.6639637 17.5722253,24.2161439 16.4498416,23.4338765 C15.8092893,22.9917253 15.2027487,22.5042254 14.5848708,22.0280626 C13.377458,21.1040801 12.3967895,19.9533534 11.3764407,18.8366383 C9.90827214,17.2324233 9.05798148,15.3050977 8.37774894,13.281406 C8.14533616,12.5841676 7.85623734,11.9039351 7.82222571,11.1500107 C7.76553967,9.91425494 8.28705127,8.88256893 8.85391172,7.83954572 C9.57382448,6.52442949 10.7869058,6.24099927 12.1246965,6.18431323 C12.2664116,6.17864462 12.4421383,6.28634811 12.5498418,6.39405159 C12.6915569,6.5357667 12.7879232,6.72283065 12.8899581,6.89855739 C13.1507139,7.35771434 13.3887953,7.82820851 13.6552197,8.28736547 C13.9669929,8.82021428 14.3014406,9.34172589 14.624551,9.8632375 C14.7435917,10.0503014 14.868301,10.2373654 14.9816731,10.4244293 C15.1800743,10.758877 15.1744056,11.0989933 14.8909754,11.3710863 C14.5055103,11.7452142 14.0917022,12.0796618 13.6892313,12.4367839 C13.3717894,12.7202141 13.048679,13.0036444 12.748243,13.2984118 C12.5271674,13.5138187 12.4761499,13.7915804 12.6235337,14.0636734 C13.1507139,15.072685 13.6835627,16.0760279 14.4544929,16.9319872 C14.8512952,17.3741384 15.2254231,17.8332953 15.6392312,18.2641093 C16.4781847,19.1314057 17.4645218,19.8059697 18.5075451,20.3955045 C18.910016,20.6222487 19.3124869,20.8546615 19.7206264,21.0700684 C20.0153938,21.2231208 20.3044927,21.1777719 20.5369054,20.9396905 C20.9053647,20.5542254 21.2681554,20.1574231 21.6309461,19.7662894 C21.8746961,19.499865 22.1014403,19.2164348 22.3678647,18.9726848 C22.8270216,18.5532081 23.0594344,18.5475395 23.5866146,18.8536441 C24.5672832,19.4205046 25.5422831,19.9816964 26.5229517,20.5428882 C26.8460622,20.7242836 27.1748412,20.8886731 27.4979517,21.0757371 C27.7417017,21.2117836 27.8607424,21.4385277 27.8040563,21.7106207 C27.6680098,22.351173 27.5319633,22.9917253 27.3448993,23.6209404 C27.2882133,23.8193416 27.0784749,23.9837311 26.9140854,24.142452 C25.9447541,25.117452 24.3348704,25.7806787 22.5435914,25.7750101 Z" id="Shape"></path>
            </g>
        </g>
    </g>
</svg>