<?xml version="1.0" encoding="utf-8"?>
<!-- Generator: Adobe Illustrator 21.0.0, SVG Export Plug-In . SVG Version: 6.00 Build 0)  -->
<svg version="1.1" id="Layer_1" xmlns="http://www.w3.org/2000/svg" xmlns:xlink="http://www.w3.org/1999/xlink" x="0px" y="0px"
	 viewBox="0 0 32 32" style="enable-background:new 0 0 32 32;" xml:space="preserve">
<style type="text/css">
	.st0{fill:#FFFFFF;}
	.st1{fill:#355F36;}
</style>
<g id="Flat_copy">
	<g>
		<g>
			<path class="st0" d="M16,31.6c-8.6,0-15.6-7-15.6-15.6S7.4,0.4,16,0.4s15.6,7,15.6,15.6S24.6,31.6,16,31.6z"/>
			<path class="st0" d="M16,0.7c8.4,0,15.2,6.8,15.2,15.2S24.4,31.2,16,31.2S0.8,24.4,0.8,16S7.6,0.7,16,0.7 M16,0C7.2,0,0,7.2,0,16
				c0,8.8,7.2,16,16,16s16-7.2,16-16C32,7.2,24.8,0,16,0L16,0z"/>
		</g>
	</g>
	<path class="st1" d="M22.1,7.9H9.9c-1.1,0-2,0.9-2,2v12.1c0,1.1,0.9,2,2,2h12.1c1.1,0,2-0.9,2-2V9.9C24.1,8.8,23.2,7.9,22.1,7.9z
		 M16,12.8c1.8,0,3.2,1.4,3.2,3.1s-1.5,3.1-3.2,3.1c-1.8,0-3.2-1.4-3.2-3.1C12.8,14.2,14.2,12.8,16,12.8z M22.1,21.6
		c0,0.4-0.2,0.5-0.5,0.5H10.4c-0.4,0-0.5-0.2-0.5-0.5v-7.1l1.3,0.3c-0.1,0.4-0.2,0.9-0.2,1.4c0,2.7,2.2,4.9,5,4.9c2.8,0,5-2.2,5-4.9
		c0-0.5-0.1-0.9-0.2-1.4l1.2-0.3L22.1,21.6L22.1,21.6z M22.1,12.5c0,0.3-0.2,0.5-0.5,0.5h-2c-0.3,0-0.5-0.2-0.5-0.5v-2
		c0-0.3,0.2-0.5,0.5-0.5h2c0.3,0,0.5,0.2,0.5,0.5C22.1,10.4,22.1,12.5,22.1,12.5z"/>
</g>
</svg>
