<?xml version="1.0" encoding="utf-8"?>
<!-- Generator: Adobe Illustrator 21.0.0, SVG Export Plug-In . SVG Version: 6.00 Build 0)  -->
<svg version="1.1" id="Layer_1" xmlns="http://www.w3.org/2000/svg" xmlns:xlink="http://www.w3.org/1999/xlink" x="0px" y="0px"
	 viewBox="0 0 32 32" style="enable-background:new 0 0 32 32;" xml:space="preserve">
<style type="text/css">
	.st0{fill:#FFFFFF;}
	.st1{fill:#355F36;}
</style>
<g id="Flat_copy">
	<g>
		<g>
			<path class="st0" d="M16,31.6c-8.6,0-15.6-7-15.6-15.6S7.4,0.4,16,0.4c8.6,0,15.6,7,15.6,15.6S24.6,31.6,16,31.6z"/>
			<path class="st0" d="M16,0.7c8.4,0,15.2,6.8,15.2,15.2S24.4,31.2,16,31.2S0.8,24.4,0.8,16S7.6,0.7,16,0.7 M16,0C7.2,0,0,7.2,0,16
				c0,8.8,7.2,16,16,16s16-7.2,16-16C32,7.2,24.8,0,16,0L16,0z"/>
		</g>
	</g>
	<g>
		<path class="st1" d="M21.1,19.6c-0.1,0-0.2,0-0.3,0.1c-0.1,0.1-0.1,0.2-0.1,0.4v0.5h0.8v-0.5c0-0.2,0-0.3-0.1-0.4
			C21.4,19.6,21.3,19.6,21.1,19.6z"/>
		<path class="st1" d="M18,19.6c-0.1,0-0.1,0-0.2,0c-0.1,0-0.1,0.1-0.2,0.1v2.9c0.1,0.1,0.1,0.1,0.2,0.2c0.1,0,0.1,0,0.2,0
			c0.1,0,0.2,0,0.2-0.1c0.1-0.1,0.1-0.2,0.1-0.3V20c0-0.2,0-0.3-0.1-0.4C18.2,19.6,18.1,19.6,18,19.6z"/>
		<path class="st1" d="M23.1,16c-0.8-0.8-7.1-0.8-7.1-0.8c0,0-6.3,0-7.1,0.8c-0.8,0.8-0.8,4.5-0.8,4.5c0,0,0,3.7,0.8,4.5
			c0.8,0.8,7.1,0.8,7.1,0.8s6.3,0,7.1-0.8c0.8-0.8,0.8-4.5,0.8-4.5C23.8,20.4,23.8,16.7,23.1,16z M13,18.1h-1.1v5.4h-1v-5.4H9.8
			v-0.9H13L13,18.1L13,18.1z M16,23.5h-0.9V23c-0.2,0.2-0.3,0.3-0.5,0.4c-0.2,0.1-0.4,0.1-0.5,0.1c-0.2,0-0.4-0.1-0.5-0.2
			c-0.1-0.1-0.2-0.3-0.2-0.6v-3.9h0.9v3.6c0,0.1,0,0.2,0.1,0.2c0,0,0.1,0.1,0.2,0.1c0.1,0,0.2,0,0.3-0.1c0.1-0.1,0.2-0.1,0.3-0.2
			v-3.5H16V23.5z M19.3,22.6c0,0.3-0.1,0.6-0.2,0.8c-0.1,0.2-0.4,0.3-0.6,0.3c-0.2,0-0.3,0-0.5-0.1c-0.1-0.1-0.3-0.2-0.4-0.3v0.4
			h-0.9v-6.3h0.9v2c0.1-0.1,0.3-0.3,0.4-0.3c0.1-0.1,0.3-0.1,0.4-0.1c0.3,0,0.5,0.1,0.7,0.3c0.2,0.2,0.2,0.5,0.2,0.9V22.6z
			 M22.5,21.3h-1.7v0.9c0,0.2,0,0.4,0.1,0.5c0.1,0.1,0.2,0.1,0.3,0.1c0.2,0,0.3,0,0.3-0.1c0.1-0.1,0.1-0.3,0.1-0.5V22h0.9v0.2
			c0,0.5-0.1,0.8-0.3,1.1c-0.2,0.2-0.6,0.4-1,0.4c-0.4,0-0.7-0.1-1-0.4c-0.2-0.3-0.4-0.6-0.4-1.1v-2.1c0-0.4,0.1-0.7,0.4-1
			c0.3-0.3,0.6-0.4,1-0.4c0.4,0,0.7,0.1,1,0.4s0.3,0.6,0.3,1L22.5,21.3L22.5,21.3z"/>
	</g>
	<path class="st1" d="M21.1,13.3h-1v-0.6c-0.2,0.2-0.4,0.4-0.6,0.5c-0.2,0.1-0.4,0.2-0.6,0.2c-0.2,0-0.4-0.1-0.5-0.2
		c-0.1-0.2-0.2-0.4-0.2-0.7V8.1h1v3.9c0,0.1,0,0.2,0.1,0.3c0,0.1,0.1,0.1,0.2,0.1c0.1,0,0.2,0,0.3-0.1c0.1-0.1,0.2-0.2,0.3-0.3V8.1
		h1L21.1,13.3L21.1,13.3z"/>
	<path class="st1" d="M17,8.4c-0.3-0.2-0.6-0.4-1-0.4c-0.5,0-0.8,0.1-1.1,0.4c-0.3,0.2-0.4,0.6-0.4,0.9V12c0,0.4,0.1,0.8,0.4,1
		c0.3,0.3,0.6,0.4,1.1,0.4c0.5,0,0.8-0.1,1.1-0.4c0.3-0.2,0.4-0.6,0.4-1V9.3C17.4,8.9,17.2,8.6,17,8.4z M16.3,12.1
		c0,0.1,0,0.2-0.1,0.3c-0.1,0.1-0.2,0.1-0.3,0.1c-0.1,0-0.2,0-0.3-0.1c-0.1-0.1-0.1-0.2-0.1-0.3V9.3c0-0.1,0-0.2,0.1-0.3
		c0.1-0.1,0.2-0.1,0.3-0.1c0.1,0,0.2,0,0.3,0.1c0.1,0.1,0.1,0.2,0.1,0.3V12.1z"/>
	<polygon class="st1" points="11.6,6.3 10.4,6.3 11.8,10.5 11.8,13.3 12.9,13.3 12.9,10.4 14.3,6.3 13.1,6.3 12.4,9.1 12.3,9.1 	"/>
</g>
</svg>
